# Blender v2.90.0 OBJ File: ''
# www.blender.org
mtllib corridor.mtl
o Cube_Cube.001
v -0.500000 0.000000 4.500000
v -0.500000 3.000000 4.500000
v -0.500000 0.000000 -4.500000
v -0.500000 3.000000 -4.500000
v 0.500000 0.000000 4.500000
v 0.500000 3.000000 4.500000
v 0.500000 0.000000 -4.500000
v 0.500000 3.000000 -4.500000
v -0.500000 2.061236 4.500000
v -0.500000 2.061236 -4.500000
v 0.500000 2.061236 -4.500000
v 0.500000 2.061236 4.500000
v -0.500000 0.000000 -3.526443
v -0.500000 3.000000 -3.526443
v 0.500000 0.000000 -3.526443
v 0.500000 3.000000 -3.526443
v 0.500000 2.061236 -3.526443
v -0.500000 2.061236 -3.526443
vt 0.546770 0.250000
vt 0.625000 0.222957
vt 0.546770 0.222957
vt 0.546770 0.500000
vt 0.625000 0.250000
vt 0.546770 0.750000
vt 0.625000 0.527043
vt 0.546770 0.527043
vt 0.546770 1.000000
vt 0.625000 0.750000
vt 0.125000 0.750000
vt 0.375000 0.527043
vt 0.125000 0.527043
vt 0.875000 0.527043
vt 0.375000 1.000000
vt 0.375000 0.750000
vt 0.375000 0.500000
vt 0.375000 0.250000
vt 0.375000 0.222957
vt 0.546770 0.000000
vt 0.375000 0.000000
vt 0.875000 0.500000
vt 0.625000 0.500000
vt 0.125000 0.500000
vt 0.625000 0.000000
vt 0.625000 1.000000
vt 0.875000 0.750000
vn 1.0000 0.0000 0.0000
vn 0.0000 0.0000 1.0000
vn -1.0000 0.0000 0.0000
vn 0.0000 0.0000 -1.0000
vn 0.0000 1.0000 0.0000
vn 0.0000 -1.0000 0.0000
usemtl None
s off
f 10/1/1 14/2/1 18/3/1
f 11/4/2 4/5/2 10/1/2
f 12/6/3 16/7/3 17/8/3
f 9/9/4 6/10/4 12/6/4
f 1/11/5 15/12/5 13/13/5
f 6/10/6 14/14/6 16/7/6
f 1/15/4 12/6/4 5/16/4
f 5/16/3 17/8/3 15/12/3
f 7/17/2 10/1/2 3/18/2
f 3/18/1 18/3/1 13/19/1
f 13/19/1 9/20/1 1/21/1
f 16/7/6 4/22/6 8/23/6
f 13/13/5 7/17/5 3/24/5
f 17/8/3 8/23/3 11/4/3
f 18/3/1 2/25/1 9/20/1
f 10/1/1 4/5/1 14/2/1
f 11/4/2 8/23/2 4/5/2
f 12/6/3 6/10/3 16/7/3
f 9/9/4 2/26/4 6/10/4
f 1/11/5 5/16/5 15/12/5
f 6/10/6 2/27/6 14/14/6
f 1/15/4 9/9/4 12/6/4
f 5/16/3 12/6/3 17/8/3
f 7/17/2 11/4/2 10/1/2
f 3/18/1 10/1/1 18/3/1
f 13/19/1 18/3/1 9/20/1
f 16/7/6 14/14/6 4/22/6
f 13/13/5 15/12/5 7/17/5
f 17/8/3 16/7/3 8/23/3
f 18/3/1 14/2/1 2/25/1
